<?xml version="1.0" encoding="utf-8"?>
<!-- Generator: Adobe Illustrator 18.1.1, SVG Export Plug-In . SVG Version: 6.00 Build 0)  -->
<!DOCTYPE svg PUBLIC "-//W3C//DTD SVG 1.1//EN" "http://www.w3.org/Graphics/SVG/1.1/DTD/svg11.dtd">
<svg version="1.1" id="Layer_1" xmlns="http://www.w3.org/2000/svg" xmlns:xlink="http://www.w3.org/1999/xlink" x="0px" y="0px"
	 viewBox="0 0 200 200" enable-background="new 0 0 200 200" xml:space="preserve">
<g>
	<path fill="#FFFFFF" d="M88.4,128.8c-0.2,2.2,2.7,3.1,3.8,1.3l33.6-52.2c0.9-1.4-0.1-3.2-1.8-3.2h-12.5c-1.5,0-2.5-1.6-1.9-3
		l18.1-37.7c0.7-1.4-0.3-3-1.9-3H84.3c-1,0-1.9,0.7-2.1,1.8l-9.5,58.8c-0.2,1.3,0.8,2.4,2.1,2.4h14c1.2,0,2.2,1,2.1,2.3L88.4,128.8z
		"/>
	<g>
		<path fill="#FFFFFF" d="M21.5,159.3l4.4-20h4.3l-3.6,16.3H35l-0.8,3.8H21.5z"/>
		<path fill="#FFFFFF" d="M37.2,159.3l4.4-20h4.3l-4.4,20H37.2z"/>
		<path fill="#FFFFFF" d="M46.4,150.7c0-6.8,5.1-11.7,12-11.7c4.3,0,7,2.4,8.2,4.9l-3.9,1.7c-0.7-1.7-2.7-2.9-4.9-2.9
			c-3.7,0-7,3.3-7,7.7c0,3,2.1,5.5,5.6,5.5c1.6,0,3-0.7,4-1.5L61,152h-5.3l0.8-3.8h9.6l-1.7,7.8c-1.9,2.3-4.8,3.7-8.1,3.7
			C50.8,159.7,46.4,156.2,46.4,150.7z"/>
		<path fill="#FFFFFF" d="M80.7,159.3l1.9-8.4h-9.4l-1.9,8.4H67l4.4-20h4.3l-1.7,7.9h9.4l1.7-7.9h4.3l-4.4,20H80.7z"/>
		<path fill="#FFFFFF" d="M93.6,159.3l3.6-16.3h-5.8l0.8-3.7h16l-0.8,3.7h-5.8l-3.6,16.3H93.6z"/>
		<path fill="#FFFFFF" d="M120.2,159.3l-6.5-13.5l-3,13.5h-4.3l4.4-20h4.4l6.4,13l2.9-13h4.3l-4.4,20H120.2z"/>
		<path fill="#FFFFFF" d="M128.3,159.3l4.4-20h4.3l-4.4,20H128.3z"/>
		<path fill="#FFFFFF" d="M150.3,159.3l-6.5-13.5l-3,13.5h-4.3l4.4-20h4.4l6.4,13l2.9-13h4.3l-4.4,20H150.3z"/>
		<path fill="#FFFFFF" d="M159.3,150.7c0-6.8,5.1-11.7,12-11.7c4.3,0,7,2.4,8.3,4.9l-3.9,1.7c-0.7-1.7-2.7-2.9-4.9-2.9
			c-3.7,0-7,3.3-7,7.7c0,3,2.1,5.5,5.6,5.5c1.7,0,3-0.7,4-1.5l0.5-2.4h-5.3l0.8-3.8h9.6l-1.7,7.8c-2,2.3-4.8,3.7-8.1,3.7
			C163.7,159.7,159.3,156.2,159.3,150.7z"/>
	</g>
</g>
</svg>
